<svg xmlns="http://www.w3.org/2000/svg" viewBox="0 0 512 512" role="img" aria-labelledby="title">
  <title id="title">Imagegen Bridge</title>
  <path
    d="M100 326V108c0-20 16-36 36-36h240c20 0 36 16 36 36v218"
    fill="none"
    stroke="#123f34"
    stroke-linecap="round"
    stroke-linejoin="round"
    stroke-width="28"
  />
  <circle cx="330" cy="150" r="31" fill="#4cc29f" />
  <path
    d="m112 316 92-112 60 68 51-55 85 99v27H112z"
    fill="#123f34"
    stroke="#123f34"
    stroke-linejoin="round"
    stroke-width="12"
  />
  <path
    d="M52 334q204-84 408 0v106H52zm38 106h82v-49a41 41 0 0 0-82 0zm101 0h130v-63a65 65 0 0 0-130 0zm149 0h82v-49a41 41 0 0 0-82 0z"
    fill="#123f34"
    fill-rule="evenodd"
  />
  <path
    d="M52 334q204-84 408 0"
    fill="none"
    stroke="#4cc29f"
    stroke-linecap="round"
    stroke-width="15"
  />
</svg>
